PathFileType	4	(X/Y/Z)	OpenSim_Sub08_CSStiffKnee_Gyro.trc
DataRate	CameraRate	NumFrames	NumMarkers	Units	OrigDataRate	OrigDataStartFrame	OrigNumFrames
100	100	20	8	m	100	1	5282
Frame#	Time	torso_imu_offset_imu	pelvis_imu_offset_imu	tibia_r_imu_offset_imu	femur_r_imu_offset_imu	tibia_l_imu_offset_imu	femur_l_imu_offset_imu	toes_r_imu_offset_imu	toes_l_imu_offset_imu
				X1	Y1	Z1	X2	Y2	Z2	X3	Y3	Z3	X4	Y4	Z4	X5	Y5	Z5	X6	Y6	Z6	X7	Y7	Z7	X8		Y8	Z8	

1	0	0.00887770	-0.01920979	0.00994846	0.02758432	0.00489459	0.00125989	0.01172881	-0.00026683	-0.00240485	0.06087995	0.00868942	-0.00792581	0.01713392	0.02008134	0.02784527	-0.01005683	-0.00161809	-0.02638414	0.00315804	0.00450967	0.00359331	0.00168791	0.01574152	-0.00437909
2	0.01000000	0.01001128	-0.01901128	0.01685059	0.02773999	0.00019434	0.00408694	0.00871320	-0.00344671	-0.00178522	0.07379584	0.00678789	-0.01315362	0.01673052	0.02050264	0.02458909	0.00467863	0.00053658	-0.02241657	0.00072883	0.00568458	0.00053767	-0.00567279	0.01209729	0.00017243
3	0.02000000	0.01355743	-0.02312007	0.02020531	0.02507570	0.00212869	0.00470473	0.00834964	0.00005779	0.00065272	0.07571821	0.00229866	-0.01444560	0.00678487	0.02056136	0.02337339	0.02258382	0.00733000	-0.02131759	-0.00081960	0.00544614	0.00211401	-0.00095212	0.01272119	0.00199199
4	0.03000000	0.01104236	-0.02329944	0.01312255	0.01833269	0.00658702	0.00258488	0.01038663	0.00188678	0.00096972	0.06821008	0.00159598	-0.01345947	0.00769186	0.01662417	0.02144559	0.03365572	0.00985554	-0.02177058	0.00296872	0.00586474	0.00204153	-0.00187796	0.01111169	0.00057085
5	0.04000000	0.00802687	-0.02092556	0.01167163	0.01564228	0.01075084	0.00411186	0.01143647	-0.00354293	-0.00226685	0.05498783	0.00295666	-0.01123988	0.00922592	0.01529220	0.02472050	0.04605317	0.01219072	-0.01777584	-0.00348514	0.00407053	0.00210899	-0.00391504	0.01163842	0.00004087
6	0.05000000	0.00359252	-0.01593070	0.01159380	0.01000307	0.01088238	0.00335593	0.01497963	-0.00530770	-0.00122005	0.03813548	0.00362787	-0.01018840	0.01104221	0.01588576	0.02325939	0.05669073	0.01722708	-0.01477244	-0.00266792	0.00813425	0.00379603	0.00041323	0.01501751	0.00097567
7	0.06000000	0.00250966	-0.01357751	0.00988129	0.00906183	0.01248875	0.00297581	0.01601014	-0.00306666	-0.00111093	0.01631764	0.00751062	-0.01131927	0.01589776	0.01260375	0.02329692	0.05268490	0.01685470	-0.01312753	0.00009370	0.00645620	-0.00045134	-0.00541050	0.01121443	0.00156758
8	0.07000000	0.00788595	-0.01474140	0.01034466	0.01210062	0.00711373	0.00284145	0.01561529	-0.00131106	-0.00806447	-0.00450640	0.00824029	-0.00954151	0.01929527	0.01376949	0.02682317	0.04404443	0.01560675	-0.01062533	-0.00129311	0.00821558	-0.00050617	-0.00426098	0.01330603	-0.00013985
9	0.08000000	0.00478504	-0.01188377	0.00548943	0.00939807	0.00068496	0.00204465	0.01123769	0.00035200	-0.01104283	-0.01610018	0.01375798	-0.00680744	0.02173942	0.00923552	0.02738154	0.03196701	0.01386329	-0.00890289	0.00265226	0.00664598	0.00360828	-0.00051858	0.01151933	-0.00244531
10	0.09000000	0.00464815	-0.01086579	0.00471913	0.00701398	0.00286269	-0.00073156	0.00449971	-0.00339283	-0.01143236	-0.01937715	0.01817268	-0.00325160	0.02159342	0.00503216	0.03021705	0.01829942	0.00729557	-0.01195285	-0.00179256	0.00308400	0.00172618	-0.00300872	0.01217464	-0.00122614
11	0.10000000	0.00639488	-0.01107133	0.00950932	0.00615488	0.00239964	-0.00406616	0.00043997	-0.00216043	-0.00995924	-0.02095385	0.01769129	0.00340858	0.01678866	0.00900672	0.03516015	0.00977780	0.00281191	-0.01476446	0.00015123	0.00625491	0.00075388	-0.00202055	0.01625622	-0.00010523
12	0.11000000	0.00020197	-0.00757063	0.00929511	0.00144801	0.00365749	-0.00512753	0.00081517	0.00119741	-0.01119691	-0.01820958	0.01646153	0.00603902	0.01270043	0.00725573	0.03254985	-0.00193849	-0.00355286	-0.01659342	0.00170902	0.00432513	0.00232830	-0.00368945	0.01070424	-0.00065718
13	0.12000000	-0.00117002	-0.00667102	0.00841888	-0.00714555	0.00323216	-0.01118858	0.00158612	0.00057028	-0.01299785	-0.01183608	0.01261607	0.00607307	0.00844736	0.00770363	0.03315769	-0.00851994	-0.00333687	-0.01559797	0.00138506	0.00533994	0.00237866	-0.00557827	0.01041405	0.00156533
14	0.13000000	-0.00379188	-0.00725630	0.01030638	-0.01355320	0.00195425	-0.01446504	0.00259486	0.00221021	-0.01354831	-0.00707221	0.00651905	0.00500457	-0.00455014	0.01257701	0.03937751	-0.01990685	-0.00287406	-0.01518544	0.00173937	0.00759085	0.00013132	-0.00064508	0.00809791	0.00344761
15	0.14000000	-0.00759145	-0.00612578	0.01402974	-0.01831502	-0.00181953	-0.01647403	0.00515105	0.00602163	-0.01413253	-0.01213558	0.01174261	0.00595379	-0.00543843	0.01116660	0.03991563	-0.03455789	-0.00280328	-0.01627751	0.00232172	0.00506741	-0.00001594	-0.00097802	0.01139968	-0.00060363
16	0.15000000	-0.00576083	-0.00396581	0.01574303	-0.01821622	-0.00369539	-0.01549984	0.00305267	0.00595928	-0.01071256	-0.01301772	0.01049513	0.00323914	-0.00023876	0.00689960	0.04611083	-0.04340121	-0.00358468	-0.01499816	0.00439175	0.00413487	-0.00066281	0.00071440	0.01442475	-0.00245019
17	0.16000000	-0.00907109	0.00083429	0.01256789	-0.01695911	-0.00206903	-0.01473660	-0.00194135	0.00293036	-0.01126061	-0.00912853	0.00831449	-0.00083497	0.00294935	0.00609824	0.04781330	-0.04811240	-0.00241924	-0.01950912	0.00440453	0.00536822	-0.00079381	-0.00789844	0.01173071	0.00314841
18	0.17000000	-0.00872718	0.00180939	0.01342827	-0.01655548	-0.00339937	-0.01133613	-0.00382738	0.00573190	-0.00858538	-0.01046452	0.01242327	-0.00382412	-0.00028590	0.00283170	0.04709986	-0.04419033	-0.00237312	-0.02215885	0.00248038	0.00539150	0.00007255	-0.00223463	0.01149766	0.00272144
19	0.18000000	-0.00694756	0.00583314	0.01243752	-0.01744183	-0.00327451	-0.00987861	-0.00138190	0.00853240	-0.00614923	-0.01144565	0.01062782	-0.00552203	-0.00990477	0.00310234	0.05223363	-0.04267040	-0.00265355	-0.02200384	0.00110033	0.00466152	-0.00025126	-0.00226316	0.00903288	0.00100072
20	0.19000000	-0.01193894	0.01044169	0.01000539	-0.02073581	-0.00405598	-0.00938592	-0.00054842	0.00762587	-0.00923433	-0.01529527	0.01268797	-0.00555987	-0.00959752	0.00389682	0.04964488	-0.04136019	-0.00350519	-0.02541204	0.00432282	0.00327741	0.00016686	-0.00814859	0.00622919	0.00391318
